<?xml version="1.0" encoding="UTF-8" standalone="no"?>
<!DOCTYPE svg PUBLIC "-//W3C//DTD SVG 1.1//EN" "http://www.w3.org/Graphics/SVG/1.1/DTD/svg11.dtd">
<svg width="100%" height="100%" viewBox="0 0 128 128" version="1.1" xmlns="http://www.w3.org/2000/svg" xmlns:xlink="http://www.w3.org/1999/xlink" xml:space="preserve" xmlns:serif="http://www.serif.com/" style="fill-rule:evenodd;clip-rule:evenodd;stroke-linejoin:round;stroke-miterlimit:2;">
    <g transform="matrix(0.101,0,0,0.101,12.322,12.322)">
        <g transform="matrix(9.90099,0,0,9.90099,-122,-122)">
            <path d="M119.262,119.262C103.035,124.815 84.149,128 64,128C43.851,128 24.965,124.815 8.738,119.262C3.185,103.035 0,84.149 0,64C0,43.851 3.185,24.965 8.738,8.738C24.965,3.185 43.851,0 64,0C84.149,0 103.035,3.185 119.262,8.738C124.815,24.965 128,43.851 128,64C128,84.149 124.815,103.035 119.262,119.262Z" style="fill:rgb(255,249,251);"/>
        </g>
        <g transform="matrix(10.0104,0,0,10.0104,-129.002,-129.002)">
            <path d="M113.944,116.002C99.045,120.635 82.043,123.251 64,123.251C45.957,123.251 28.955,120.635 14.057,116.002L12.487,115.514L11.998,113.944C7.365,99.045 4.749,82.043 4.749,64C4.749,45.957 7.365,28.955 11.998,14.056L12.486,12.486L14.056,11.998C28.955,7.365 45.957,4.749 64,4.749C82.043,4.749 99.045,7.365 113.943,11.998L115.513,12.486L116.002,14.056C120.635,28.955 123.251,45.957 123.251,64C123.251,82.043 120.635,99.045 116.002,113.944L115.514,115.514L113.944,116.002Z" style="fill:rgb(10,46,54);"/>
        </g>
        <g transform="matrix(10.0887,0,0,10.0887,-134.013,-134.013)">
            <path d="M14.985,14.985L113.015,113.015C98.394,117.561 81.707,120.123 64,120.123C46.293,120.123 29.606,117.561 14.985,113.015C10.439,98.394 7.877,81.707 7.877,64C7.877,46.293 10.439,29.606 14.985,14.985Z" style="fill:rgb(75,136,162);"/>
        </g>
        <g transform="matrix(10.0887,0,0,10.0887,-134.013,-134.013)">
            <path d="M14.985,14.985C29.606,10.438 46.293,7.877 64,7.877C81.707,7.877 98.394,10.439 113.015,14.985C117.561,29.606 120.123,46.293 120.123,64C120.123,81.707 117.561,98.394 113.015,113.015L14.985,14.985Z" style="fill:rgb(114,213,155);"/>
        </g>
        <g transform="matrix(7.00484,-1.87694,2.00343,7.47692,-169.994,-35.8489)">
            <path d="M80.845,59.833C84.164,59.833 86.854,62.416 86.854,65.602C86.854,76.786 86.854,105.464 86.854,116.648C86.854,119.834 84.164,122.417 80.845,122.417C66.721,122.417 31.54,122.417 17.416,122.417C14.097,122.417 11.407,119.834 11.407,116.648C11.407,105.464 11.407,76.786 11.407,65.602C11.407,62.416 14.097,59.833 17.416,59.833C31.54,59.833 66.721,59.833 80.845,59.833Z" style="fill:rgb(10,46,54);"/>
        </g>
        <g transform="matrix(-2.90041,-10.8245,6.57913,-1.76287,380.045,1414.52)">
            <path d="M71.667,79.217C72.423,77.704 73.566,76.824 74.774,76.824C75.982,76.824 77.125,77.704 77.882,79.217C81.414,86.282 87.238,97.929 91.465,106.384C92.425,108.304 92.614,110.937 91.951,113.156C91.288,115.375 89.891,116.787 88.358,116.787C80.567,116.787 68.981,116.787 61.191,116.787C59.658,116.787 58.26,115.375 57.597,113.156C56.935,110.937 57.123,108.304 58.083,106.384C62.311,97.929 68.134,86.282 71.667,79.217Z" style="fill:rgb(10,46,54);"/>
        </g>
        <g transform="matrix(8.61709,-2.30894,1.75627,6.5545,184.671,218.453)">
            <path d="M28.288,53.194C29.815,53.194 31.052,54.82 31.052,56.827C31.052,60.039 31.052,64.701 31.052,67.914C31.052,69.92 29.815,71.547 28.288,71.547C28.287,71.547 28.286,71.547 28.284,71.547C26.758,71.547 25.521,69.92 25.521,67.914C25.521,64.701 25.521,60.039 25.521,56.827C25.521,54.82 26.758,53.194 28.284,53.194C28.286,53.194 28.287,53.194 28.288,53.194Z" style="fill:rgb(255,249,251);"/>
        </g>
        <g transform="matrix(8.61709,-2.30894,1.75627,6.5545,-149.178,307.908)">
            <path d="M28.288,53.194C29.815,53.194 31.052,54.82 31.052,56.827C31.052,60.039 31.052,64.701 31.052,67.914C31.052,69.92 29.815,71.547 28.288,71.547C28.287,71.547 28.286,71.547 28.284,71.547C26.758,71.547 25.521,69.92 25.521,67.914C25.521,64.701 25.521,60.039 25.521,56.827C25.521,54.82 26.758,53.194 28.284,53.194C28.286,53.194 28.287,53.194 28.288,53.194Z" style="fill:rgb(255,249,251);"/>
        </g>
        <g transform="matrix(13.9041,-3.72559,3.72559,13.9041,-578.201,-234.482)">
            <path d="M52.503,76.542C52.857,76.542 53.19,76.708 53.403,76.991C53.615,77.274 53.682,77.64 53.583,77.98C52.943,80.147 50.941,81.738 48.571,81.738C46.2,81.738 44.198,80.147 43.575,77.975C43.478,77.641 43.544,77.28 43.753,77.001C43.962,76.723 44.29,76.559 44.638,76.559C46.637,76.542 50.505,76.542 52.503,76.542Z" style="fill:rgb(255,249,251);"/>
        </g>
    </g>
</svg>
